# Blender v2.75 (sub 0) OBJ File: ''
# www.blender.org
mtllib table.mtl
o Table_Cube
v 5.994971 -0.007466 -2.981162
v 5.994971 -0.007466 2.998037
v -5.995929 -0.007466 2.998036
v -5.995928 -0.007466 -2.981163
v 5.994972 1.000000 -2.981162
v 5.994971 1.000000 2.998037
v -5.995929 1.000000 2.998036
v -5.995929 1.000000 -2.981162
v 5.994972 1.000000 -2.981162
v 5.994971 1.000000 2.998037
v -5.995929 1.000000 -2.981162
v -5.995929 1.000000 2.998036
v 5.994971 1.000000 -2.607462
v -5.995929 1.000000 2.624336
v -5.246497 1.000000 -2.607462
v 5.245541 1.000000 -2.607462
v 5.245540 1.000000 2.624337
v -5.246498 1.000000 2.624336
v -5.246497 0.578122 -2.607462
v 5.245541 0.578122 -2.607462
v 5.245540 0.578122 2.624337
v -5.246498 0.578122 2.624336
vn 0.000000 1.000000 0.000000
vn 0.000000 0.000000 1.000000
vn 1.000000 0.000000 0.000000
vn -1.000000 0.000000 -0.000000
vn 0.000000 0.000000 -1.000000
vn 0.000000 -1.000000 0.000000
usemtl Material
s off
f 8//1 7//1 14//1
f 5//2 8//2 11//2
f 7//2 6//2 10//2
f 19//1 22//1 21//1
f 14//2 11//2 8//2
f 7//2 12//2 14//2
f 9//2 5//2 11//2
f 12//2 7//2 10//2
f 20//1 19//1 21//1
usemtl Material.002
f 22//3 19//3 15//3
f 15//2 19//2 20//2
f 11//1 14//1 15//1
f 18//3 22//3 15//3
f 16//2 15//2 20//2
f 15//1 9//1 11//1
f 9//1 16//1 13//1
f 14//1 18//1 15//1
f 15//1 16//1 9//1
usemtl Material.003
f 12//1 10//1 17//1
f 16//4 20//4 21//4
f 17//5 21//5 22//5
f 13//1 16//1 17//1
f 18//1 14//1 12//1
f 10//1 13//1 17//1
f 17//1 18//1 12//1
f 17//4 16//4 21//4
f 18//5 17//5 22//5
usemtl Material.004
f 2//6 3//6 4//6
f 6//2 7//2 3//2
f 7//4 8//4 4//4
f 1//5 4//5 8//5
f 9//3 13//3 1//3
f 1//6 2//6 4//6
f 2//2 6//2 3//2
f 3//4 7//4 4//4
f 5//5 1//5 8//5
f 10//2 6//2 2//2
f 1//2 5//2 9//2
f 13//3 2//3 1//3
f 2//3 13//3 10//3
